<?xml version="1.0" encoding="utf-8"?>
<!DOCTYPE svg PUBLIC "-//W3C//DTD SVG 1.0//EN" "http://www.w3.org/TR/2001/REC-SVG-20010904/DTD/svg10.dtd">
<svg version="1.0" xmlns="http://www.w3.org/2000/svg" width="565px" height="565px" viewBox="0 0 565 565" preserveAspectRatio="xMidYMid meet">
 <g fill="#0070b9">
  <path d="M361.3 397.4 c-0.9 -2.3 1.3 -4 3.2 -2.4 1.2 1 1.3 1.6 0.4 2.6 -1.5 1.8 -2.8 1.8 -3.6 -0.2z"/>
  <path d="M408.2 397.3 c0.2 -1 1 -1.8 1.8 -1.8 0.8 0 1.6 0.8 1.8 1.8 0.2 1.2 -0.3 1.7 -1.8 1.7 -1.5 0 -2 -0.5 -1.8 -1.7z"/>
  <path d="M383.2 386.3 c-1.4 -2.6 0.3 -5.3 3.4 -5.3 1.4 0 2.7 0.7 3.1 1.6 1.5 3.9 -4.6 7.3 -6.5 3.7z"/>
  <path d="M316.5 381 c-0.4 -0.7 -0.3 -1.6 0.3 -2.2 1.4 -1.4 4.5 -0.2 4 1.5 -0.6 1.6 -3.4 2.1 -4.3 0.7z"/>
  <path d="M343.4 380.6 c-1.2 -3.1 0 -5.1 3.1 -5.1 2.7 0 3 0.3 3 3 0 2.5 -0.4 3 -2.8 3.3 -1.7 0.2 -2.9 -0.2 -3.3 -1.2z"/>
  <path d="M424.4 380.6 c-1.2 -3.1 0 -5.1 3.1 -5.1 2.7 0 3 0.3 3 3 0 2.5 -0.4 3 -2.8 3.3 -1.7 0.2 -2.9 -0.2 -3.3 -1.2z"/>
  <path d="M452.6 380.5 c-0.3 -0.9 0.1 -1.8 1 -2.2 1.9 -0.7 3.9 1.1 3 2.6 -1 1.6 -3.3 1.3 -4 -0.4z"/>
  <path d="M364.8 374.5 c-1.4 -3.1 0.1 -7 2.9 -7.7 4.9 -1.3 8.7 3.6 6.3 8.1 -1.7 3.2 -7.7 2.9 -9.2 -0.4z"/>
  <path d="M400.1 375.6 c-2 -2.3 -0.9 -6.9 1.8 -8.3 2.9 -1.4 5.5 -0.4 7.1 2.8 2.6 4.7 -5.5 9.6 -8.9 5.5z"/>
  <path d="M332.6 365.1 c-2.4 -2.6 -1.7 -6.2 1.5 -8 2.4 -1.3 2.9 -1.3 5.3 0.2 3.1 2.1 3.4 5.6 0.8 8 -2.5 2.2 -5.5 2.1 -7.6 -0.2z"/>
  <path d="M433.8 365.9 c-2.4 -1.4 -2.3 -6.1 0.2 -8.4 3.6 -3.3 9 0.3 8.1 5.5 -0.6 3.4 -4.9 4.9 -8.3 2.9z"/>
  <path d="M381.6 362.9 c-5 -3.9 -2.2 -11.9 4.2 -11.9 3.4 0 7.2 3.7 7.2 6.9 0 2.7 -4.2 7.1 -6.8 7.1 -1.1 0 -3.1 -0.9 -4.6 -2.1z"/>
  <path d="M307.4 362.6 c-1.2 -3.1 0 -5.1 3.1 -5.1 2.7 0 3 0.3 3 3 0 2.5 -0.4 3 -2.8 3.3 -1.7 0.2 -2.9 -0.2 -3.3 -1.2z"/>
  <path d="M458.9 362.4 c-1.7 -2.1 0 -4.9 3.1 -4.9 3.1 0 4.8 2.8 3.1 4.9 -0.8 0.9 -2.1 1.6 -3.1 1.6 -1 0 -2.3 -0.7 -3.1 -1.6z"/>
  <path d="M355.1 357.4 c-2.5 -3.2 -2.5 -3.7 -0.6 -7.4 1.8 -3.5 4.7 -4.6 8.6 -3 2.9 1.2 4.7 4.8 4 8 -1 5.4 -8.5 6.8 -12 2.4z"/>
  <path d="M407.7 358.2 c-2.6 -2.9 -2.2 -7.7 0.9 -10.1 3.3 -2.6 5.5 -2.6 8.2 -0.3 3.2 2.6 3.7 6.3 1.2 9.5 -2.6 3.3 -7.8 3.7 -10.3 0.9z"/>
  <path d="M280.5 356 c-0.4 -0.7 -0.3 -1.6 0.3 -2.2 1.4 -1.4 4.5 -0.2 4 1.5 -0.6 1.6 -3.4 2.1 -4.3 0.7z"/>
  <path d="M489.5 356 c-0.4 -0.7 -0.3 -1.6 0.3 -2.2 1.4 -1.4 4.5 -0.2 4 1.5 -0.6 1.6 -3.4 2.1 -4.3 0.7z"/>
  <path d="M333.8 345.3 c-3.5 -3.9 -2.3 -9.4 2.3 -11.4 2.7 -1 3.6 -1 5.7 0.2 3.8 2.1 4.9 6.5 2.5 9.8 -2.5 3.3 -8.1 4.1 -10.5 1.4z"/>
  <path d="M430.8 345.3 c-3.4 -3.8 -2.3 -9.4 2.1 -11.3 4 -1.6 6.9 -0.5 8.8 3.6 1.6 3.2 1.6 3.6 -0.4 6.2 -2.5 3.4 -8.1 4.2 -10.5 1.5z"/>
  <path d="M307.1 344.6 c-2 -2.3 -0.9 -6.9 1.8 -8.3 2.9 -1.4 5.5 -0.4 7.1 2.8 2.6 4.7 -5.5 9.6 -8.9 5.5z"/>
  <path d="M457.8 343.5 c-0.8 -1.9 -0.8 -3.1 0 -5 2.2 -4.9 10.2 -2.8 10.2 2.6 0 4.9 -8.2 6.9 -10.2 2.4z"/>
  <path d="M282 335.5 c-1.8 -2.1 -0.3 -5.5 2.4 -5.5 3.3 0 5 2.3 3.6 4.9 -1.2 2.4 -4.2 2.7 -6 0.6z"/>
  <path d="M485.4 335.6 c-0.3 -0.8 -0.4 -2.3 -0.2 -3.3 0.5 -2.5 6.1 -2.5 6.6 0 0.7 3.7 -5.1 6.7 -6.4 3.3z"/>
  <path d="M317 322 c-4.1 -4.1 -1.2 -12 4.5 -12 3.1 0 7.5 4.1 7.5 7 0 2.9 -4.4 7 -7.5 7 -1.4 0 -3.4 -0.9 -4.5 -2z"/>
  <path d="M448.1 321.4 c-1.2 -1.5 -2.1 -3.4 -2.1 -4.4 0 -1 0.9 -2.9 2.1 -4.4 2.6 -3.3 6.8 -3.4 9.7 -0.3 2.8 3 2.8 6.8 -0.1 9.5 -3.2 3 -7.1 2.8 -9.6 -0.4z"/>
  <path d="M269.3 321.4 c-0.8 -2.1 1.3 -4.2 2.8 -2.7 1.3 1.3 0.5 4.3 -1.1 4.3 -0.6 0 -1.3 -0.7 -1.7 -1.6z"/>
  <path d="M0 313.5 l0 -5.4 28.1 -25.3 28.2 -25.3 -27.7 -0.3 -27.6 -0.2 2.7 -5.5 2.7 -5.5 33.3 0 33.3 0 0 5.8 0 5.7 -27.4 24.5 c-15.1 13.5 -27.5 24.8 -27.5 25.3 -0.1 0.4 12.3 0.7 27.4 0.7 l27.5 0 -2.7 5.5 -2.7 5.5 -33.8 0 -33.8 0 0 -5.5z"/>
  <path d="M104.7 317.3 c0.4 -0.9 7.9 -17.2 16.8 -36.2 l16.2 -34.6 6.7 -0.3 6.6 -0.3 -2.6 5.8 c-1.4 3.2 -8.6 19.6 -16.1 36.6 l-13.6 30.7 -7.3 0 c-6.5 0 -7.3 -0.2 -6.7 -1.7z"/>
  <path d="M186.1 312.8 c-1.6 -3.5 -8.1 -17.5 -14.6 -31.3 -6.5 -13.7 -12.8 -27.4 -14.1 -30.2 l-2.4 -5.3 7.4 0 7.3 0 14.1 31.8 c7.7 17.4 15 33.8 16.1 36.5 l2 4.7 -6.5 0 -6.5 0 -2.8 -6.2z"/>
  <path d="M234 282.5 l0 -36.5 36 0 36 0 -2.7 5.5 -2.7 5.5 -27.8 0 -27.8 0 0 10 0 10 23 0 23 0 -2.7 5.5 -2.7 5.5 -20.3 0 -20.3 0 0 15.5 0 15.5 -5.5 0 -5.5 0 0 -36.5z"/>
  <path d="M287.4 316.5 c-2.1 -3.3 -0.6 -7.2 3.1 -8.1 5 -1.3 8.6 5.3 4.9 9 -2.4 2.4 -6.1 2 -8 -0.9z"/>
  <path d="M352 282.5 l0 -36.5 36.5 0 36.5 0 -2.7 5.5 -2.7 5.5 -28.1 0.2 -28 0.3 0 9.5 0 9.5 23.2 0.3 23.3 0.2 -2.7 5.5 -2.7 5.5 -20.5 0.2 -20.6 0.3 0 9.5 0 9.5 30.7 0.5 30.7 0.5 -2.7 5 -2.7 5 -33.8 0.3 -33.7 0.2 0 -36.5z"/>
  <path d="M492 282.5 l0 -36.5 5.4 0 5.5 0 24.8 27.6 24.8 27.5 0.3 -27.5 0.2 -27.6 6 0 6 0 0 36.5 0 36.5 -5.8 0 -5.8 0 -24.9 -27.9 -25 -27.8 -0.3 27.8 -0.2 27.9 -5.5 0 -5.5 0 0 -36.5z"/>
  <path d="M307.5 289.5 c-3 -3 -3.1 -5.4 -0.4 -8.9 4 -5 11.9 -2.1 11.9 4.4 0 6.4 -7 9.1 -11.5 4.5z"/>
  <path d="M461.6 289.9 c-3.3 -2.6 -3.4 -6.8 -0.3 -9.7 1.3 -1.2 3.5 -2.2 4.8 -2.2 3.2 0 6.9 3.9 6.9 7.2 0 2.9 -4.1 6.8 -7 6.8 -1 0 -2.9 -0.9 -4.4 -2.1z"/>
  <path d="M317.4 256.7 c-1.7 -1.5 -2.6 -3.3 -2.6 -5.2 0 -3.1 4 -7.5 6.8 -7.5 2.1 0 7.4 5.4 7.4 7.5 0 2.1 -5.3 7.5 -7.4 7.5 -0.8 0 -2.7 -1 -4.2 -2.3z"/>
  <path d="M451.3 258 c-6.9 -2.8 -4.8 -13.3 2.7 -13.3 5.9 0 9.1 6.7 5.3 11.1 -2.2 2.5 -5.1 3.3 -8 2.2z"/>
  <path d="M258.5 240 c-0.4 -0.7 -0.3 -1.6 0.3 -2.2 1.4 -1.4 4.5 -0.2 4 1.5 -0.6 1.6 -3.4 2.1 -4.3 0.7z"/>
  <path d="M513.2 239.3 c0.2 -1 1 -1.8 1.8 -1.8 0.8 0 1.6 0.8 1.8 1.8 0.2 1.2 -0.3 1.7 -1.8 1.7 -1.5 0 -2 -0.5 -1.8 -1.7z"/>
  <path d="M282.8 233.9 c-3.3 -1.9 -1.5 -6.9 2.4 -6.9 1.5 0 3.8 2.7 3.8 4.4 0 0.7 -3.1 3.6 -3.8 3.6 -0.4 0 -1.5 -0.5 -2.4 -1.1z"/>
  <path d="M486.2 233.8 c-1.9 -1.9 -1.4 -5.6 0.8 -6.3 4.3 -1.4 6.9 4.4 3.1 6.5 -2.4 1.3 -2.4 1.3 -3.9 -0.2z"/>
  <path d="M334 229 c-2.8 -2.8 -2.7 -8.4 0.2 -10.4 4.9 -3.5 11.1 -0.4 11.1 5.4 0 6.1 -7.1 9.2 -11.3 5z"/>
  <path d="M430.9 229.2 c-4.7 -3.9 -1.6 -12.2 4.6 -12.2 1.3 0 3.3 0.8 4.6 1.8 4.7 3.9 1.6 12.2 -4.6 12.2 -1.3 0 -3.3 -0.8 -4.6 -1.8z"/>
  <path d="M308.2 227.4 c-2.4 -1.7 -3 -6.2 -1 -8.2 2.1 -2.1 6.6 -1.4 8.3 1.2 2.4 3.6 -0.2 8.6 -4.4 8.6 -0.3 0 -1.7 -0.7 -2.9 -1.6z"/>
  <path d="M459.2 227.4 c-4.1 -2.8 -1.9 -9.4 3.2 -9.4 2.6 0 5.6 2.9 5.6 5.3 0 2 -3.4 5.7 -5.3 5.7 -0.7 0 -2.3 -0.7 -3.5 -1.6z"/>
  <path d="M355.9 216.2 c-4.7 -3.9 -1.6 -12.2 4.6 -12.2 6.1 0 8.9 7.6 4.5 12 -2.5 2.5 -6.1 2.6 -9.1 0.2z"/>
  <path d="M408 216 c-1.1 -1.1 -2 -3.3 -2 -5 0 -6.5 7.9 -9.4 11.9 -4.4 2.7 3.5 2.6 5.9 -0.4 8.9 -2.9 3 -6.8 3.2 -9.5 0.5z"/>
  <path d="M380.6 210.8 c-5.4 -7.6 4.7 -15.7 10.7 -8.6 3.9 4.6 0.6 10.8 -5.7 10.8 -2.5 0 -3.9 -0.7 -5 -2.2z"/>
  <path d="M490.1 211 c-1.4 -0.8 -0.8 -4 0.7 -4 0.5 0 1.5 0.6 2.1 1.4 1.5 1.7 -0.8 3.9 -2.8 2.6z"/>
  <path d="M280.5 210 c-0.4 -0.7 -0.3 -1.6 0.3 -2.2 1.4 -1.4 4.5 -0.2 4 1.5 -0.6 1.6 -3.4 2.1 -4.3 0.7z"/>
  <path d="M308.7 206.9 c-2.2 -1.3 -2.2 -5.8 -0.1 -6.6 3.9 -1.5 7.3 4.6 3.7 6.5 -1.2 0.7 -2.5 0.7 -3.6 0.1z"/>
  <path d="M332.7 206.2 c-3.3 -3.6 -0.8 -9.2 4 -9.2 2.5 0 5.3 3 5.3 5.7 0 4.6 -6.2 6.9 -9.3 3.5z"/>
  <path d="M433.8 206.9 c-1.2 -0.6 -1.8 -2.2 -1.8 -4.5 0 -2.7 0.5 -3.7 2.5 -4.6 3.1 -1.4 7.4 0.3 7.6 2.9 0.4 6.1 -3.5 9 -8.3 6.2z"/>
  <path d="M458.5 205 c-1.4 -4.3 4.4 -6.7 6.8 -2.8 0.8 1.2 0.7 2.1 -0.2 3.2 -1.9 2.3 -5.8 2 -6.6 -0.4z"/>
  <path d="M366 196 c-1.1 -1.1 -2 -2.8 -2 -3.8 0 -2.4 3.1 -5.2 5.7 -5.2 2.3 0 5.3 3 5.3 5.3 0 2.1 -3.5 5.7 -5.5 5.7 -0.8 0 -2.4 -0.9 -3.5 -2z"/>
  <path d="M401.3 196.5 c-2.5 -1.8 -3.1 -6.3 -1.1 -8.3 2.1 -2.1 6.6 -1.4 8.4 1.4 1.6 2.4 1.6 2.7 -0.3 5.2 -2.5 3.3 -4.1 3.7 -7 1.7z"/>
  <path d="M344.7 188.9 c-2.3 -1.3 -2.2 -5.6 0.2 -6.4 2.8 -0.9 5.1 0.5 5.1 3.1 0 2.9 -2.8 4.6 -5.3 3.3z"/>
  <path d="M317.1 185.6 c-1.4 -1.7 -0.7 -3.6 1.4 -3.6 2.2 0 2.9 2 1.3 3.6 -1.3 1.3 -1.6 1.3 -2.7 0z"/>
  <path d="M453.1 185.6 c-0.8 -1 -0.7 -1.7 0.3 -2.6 1.7 -1.3 3.6 -0.6 3.6 1.5 0 1.9 -2.7 2.6 -3.9 1.1z"/>
  <path d="M383.6 181.9 c-1.7 -2.5 -1.2 -4.6 1.5 -5.4 4.2 -1.4 6.8 4.4 3 6.5 -2.6 1.4 -2.8 1.3 -4.5 -1.1z"/>
  <path d="M408.2 171.3 c0.2 -1 1 -1.8 1.8 -1.8 0.8 0 1.6 0.8 1.8 1.8 0.2 1.2 -0.3 1.7 -1.8 1.7 -1.5 0 -2 -0.5 -1.8 -1.7z"/>
  <path d="M361.7 169.3 c-1.4 -1.3 -0.6 -3.3 1.3 -3.3 1.3 0 2 0.7 2 2 0 1.9 -2 2.7 -3.3 1.3z"/>
 </g>
</svg>