<?xml version="1.0" encoding="utf-8"?>
<!-- Generator: Adobe Illustrator 27.0.0, SVG Export Plug-In . SVG Version: 6.00 Build 0)  -->
<svg version="1.1" id="图层_1" xmlns="http://www.w3.org/2000/svg" xmlns:xlink="http://www.w3.org/1999/xlink" x="0px" y="0px"
	 viewBox="0 0 1252 1252" style="enable-background:new 0 0 1252 1252;" xml:space="preserve">
<style type="text/css">
	.st0{fill:#0070B9;}
	.st1{fill:#E41431;stroke:#F9E093;stroke-width:3;stroke-miterlimit:10;}
	.st2{font-family:'STKaiti';}
	.st3{font-size:300px;}
</style>
<g>
	<path class="st0" d="M791.9,662.1c-1.9-4.8,2.7-8.4,6.7-5c2.5,2.1,2.7,3.4,0.8,5.5C796.3,666.3,793.6,666.3,791.9,662.1z"/>
	<path class="st0" d="M890.3,661.9c0.4-2.1,2.1-3.8,3.8-3.8s3.4,1.7,3.8,3.8c0.4,2.5-0.6,3.6-3.8,3.6
		C890.9,665.5,889.9,664.4,890.3,661.9z"/>
	<path class="st0" d="M837.9,638.9c-2.9-5.5,0.6-11.1,7.1-11.1c2.9,0,5.7,1.5,6.5,3.4C854.6,639.3,841.8,646.4,837.9,638.9
		L837.9,638.9z"/>
	<path class="st0" d="M698,627.7c-0.8-1.5-0.6-3.4,0.6-4.6c2.9-2.9,9.4-0.4,8.4,3.1C705.7,629.6,699.9,630.7,698,627.7z"/>
	<path class="st0" d="M754.4,626.9c-2.5-6.5,0-10.7,6.5-10.7c5.7,0,6.3,0.6,6.3,6.3c0,5.2-0.8,6.3-5.9,6.9
		C757.7,629.8,755.2,629,754.4,626.9L754.4,626.9z"/>
	<path class="st0" d="M924.3,626.9c-2.5-6.5,0-10.7,6.5-10.7c5.7,0,6.3,0.6,6.3,6.3c0,5.2-0.8,6.3-5.9,6.9
		C927.6,629.8,925.1,629,924.3,626.9L924.3,626.9z"/>
	<path class="st0" d="M983.4,626.7c-0.6-1.9,0.2-3.8,2.1-4.6c4-1.5,8.2,2.3,6.3,5.5C989.7,630.9,984.9,630.3,983.4,626.7z"/>
	<path class="st0" d="M799.3,614.1c-2.9-6.5,0.2-14.7,6.1-16.2c10.3-2.7,18.2,7.6,13.2,17C815,621.7,802.4,621,799.3,614.1
		L799.3,614.1z"/>
	<path class="st0" d="M873.3,616.4c-4.2-4.8-1.9-14.5,3.8-17.4c6.1-2.9,11.5-0.8,14.9,5.9C897.4,614.7,880.4,625,873.3,616.4z"/>
	<path class="st0" d="M731.7,594.4c-5-5.5-3.6-13,3.1-16.8c5-2.7,6.1-2.7,11.1,0.4c6.5,4.4,7.1,11.7,1.7,16.8
		C742.4,599.4,736.1,599.2,731.7,594.4L731.7,594.4z"/>
	<path class="st0" d="M944,596.1c-5-2.9-4.8-12.8,0.4-17.6c7.6-6.9,18.9,0.6,17,11.5C960.1,597.1,951.1,600.3,944,596.1L944,596.1z"
		/>
	<path class="st0" d="M834.5,589.8c-10.5-8.2-4.6-25,8.8-25c7.1,0,15.1,7.8,15.1,14.5c0,5.7-8.8,14.9-14.3,14.9
		C841.8,594.2,837.7,592.3,834.5,589.8L834.5,589.8z"/>
	<path class="st0" d="M678.9,589.1c-2.5-6.5,0-10.7,6.5-10.7c5.7,0,6.3,0.6,6.3,6.3c0,5.2-0.8,6.3-5.9,6.9
		C682.2,592.1,679.7,591.2,678.9,589.1L678.9,589.1z"/>
	<path class="st0" d="M996.6,588.7c-3.6-4.4,0-10.3,6.5-10.3c6.5,0,10.1,5.9,6.5,10.3c-1.7,1.9-4.4,3.4-6.5,3.4
		C1001,592.1,998.3,590.6,996.6,588.7z"/>
	<path class="st0" d="M778.9,578.2c-5.2-6.7-5.2-7.8-1.3-15.5c3.8-7.3,9.9-9.6,18-6.3c6.1,2.5,9.9,10.1,8.4,16.8
		C802,584.5,786.3,587.5,778.9,578.2z"/>
	<path class="st0" d="M889.3,579.9c-5.5-6.1-4.6-16.2,1.9-21.2c6.9-5.5,11.5-5.5,17.2-0.6c6.7,5.5,7.8,13.2,2.5,19.9
		C905.4,584.9,894.5,585.8,889.3,579.9L889.3,579.9z"/>
	<path class="st0" d="M622.5,575.3c-0.8-1.5-0.6-3.4,0.6-4.6c2.9-2.9,9.4-0.4,8.4,3.1C630.2,577.2,624.3,578.2,622.5,575.3z"/>
	<path class="st0" d="M1060.8,575.3c-0.8-1.5-0.6-3.4,0.6-4.6c2.9-2.9,9.4-0.4,8.4,3.1C1068.6,577.2,1062.7,578.2,1060.8,575.3z"/>
	<path class="st0" d="M734.3,552.9c-7.3-8.2-4.8-19.7,4.8-23.9c5.7-2.1,7.6-2.1,12,0.4c8,4.4,10.3,13.6,5.2,20.6
		C751,556.8,739.3,558.5,734.3,552.9z"/>
	<path class="st0" d="M937.7,552.9c-7.1-8-4.8-19.7,4.4-23.7c8.4-3.4,14.5-1,18.5,7.6c3.4,6.7,3.4,7.6-0.8,13
		C954.5,556.8,942.7,558.5,937.7,552.9L937.7,552.9z"/>
	<path class="st0" d="M678.2,551.4c-4.2-4.8-1.9-14.5,3.8-17.4c6.1-2.9,11.5-0.8,14.9,5.9C702.4,549.7,685.4,560,678.2,551.4z"/>
	<path class="st0" d="M994.3,549.1c-1.7-4-1.7-6.5,0-10.5c4.6-10.3,21.4-5.9,21.4,5.5C1015.7,554.3,998.5,558.5,994.3,549.1z"/>
	<path class="st0" d="M625.6,532.3c-3.8-4.4-0.6-11.5,5-11.5c6.9,0,10.5,4.8,7.6,10.3C635.7,536.1,629.4,536.7,625.6,532.3z"/>
	<path class="st0" d="M1052.2,532.5c-0.6-1.7-0.8-4.8-0.4-6.9c1-5.2,12.8-5.2,13.8,0C1067.1,533.4,1054.9,539.6,1052.2,532.5z"/>
	<path class="st0" d="M699,504c-8.6-8.6-2.5-25.2,9.4-25.2c6.5,0,15.7,8.6,15.7,14.7c0,6.1-9.2,14.7-15.7,14.7
		C705.5,508.2,701.3,506.3,699,504z"/>
	<path class="st0" d="M974,502.7c-2.5-3.1-4.4-7.1-4.4-9.2c0-2.1,1.9-6.1,4.4-9.2c5.5-6.9,14.3-7.1,20.3-0.6
		c5.9,6.3,5.9,14.3-0.2,19.9C987.4,509.9,979.2,509.4,974,502.7L974,502.7z"/>
	<path class="st0" d="M599,502.7c-1.7-4.4,2.7-8.8,5.9-5.7c2.7,2.7,1,9-2.3,9C601.3,506.1,599.8,504.6,599,502.7L599,502.7z"/>
	<path class="st0" d="M34.1,486.2v-11.3l58.9-53.1l59.1-53.1l-58.1-0.6l-57.9-0.4l5.7-11.5l5.7-11.5h69.8h69.8v12.2v12l-57.5,51.4
		c-31.7,28.3-57.7,52-57.7,53.1c-0.2,0.8,25.8,1.5,57.5,1.5h57.7l-5.7,11.5l-5.7,11.5H105H34.1L34.1,486.2L34.1,486.2z"/>
	<path class="st0" d="M253.7,494.1c0.8-1.9,16.6-36.1,35.2-75.9l34-72.6L337,345l13.8-0.6l-5.5,12.2c-2.9,6.7-18,41.1-33.8,76.8
		l-28.5,64.4h-15.3C254.1,497.7,252.5,497.3,253.7,494.1L253.7,494.1z"/>
	<path class="st0" d="M424.5,484.7c-3.4-7.3-17-36.7-30.6-65.6c-13.6-28.7-26.8-57.5-29.6-63.3l-5-11.1h15.5h15.3l29.6,66.7
		c16.2,36.5,31.5,70.9,33.8,76.6l4.2,9.9H444h-13.6L424.5,484.7z"/>
	<path class="st0" d="M524.9,421.1v-76.6h75.5h75.5l-5.7,11.5l-5.7,11.5h-58.3H548v21v21h48.2h48.2l-5.7,11.5l-5.7,11.5h-42.6H548
		v32.5v32.5h-11.5h-11.5L524.9,421.1L524.9,421.1z"/>
	<path class="st0" d="M636.9,492.5c-4.4-6.9-1.3-15.1,6.5-17c10.5-2.7,18,11.1,10.3,18.9C648.7,499.4,640.9,498.5,636.9,492.5z"/>
	<path class="st0" d="M772.4,421.1v-76.6H849h76.6l-5.7,11.5l-5.7,11.5l-58.9,0.4l-58.7,0.6v19.9v19.9l48.7,0.6l48.9,0.4l-5.7,11.5
		l-5.7,11.5l-43,0.4l-43.2,0.6v19.9v19.9l64.4,1l64.4,1l-5.7,10.5l-5.7,10.5l-70.9,0.6l-70.7,0.4L772.4,421.1L772.4,421.1z"/>
	<path class="st0" d="M1066.1,421.1v-76.6h11.3h11.5l52,57.9l52,57.7l0.6-57.7l0.4-57.9h12.6h12.6v76.6v76.6H1207h-12.2l-52.2-58.5
		l-52.4-58.3l-0.6,58.3l-0.4,58.5h-11.5h-11.5V421.1z"/>
	<path class="st0" d="M679.1,435.8c-6.3-6.3-6.5-11.3-0.8-18.7c8.4-10.5,25-4.4,25,9.2C703.2,439.8,688.5,445.5,679.1,435.8z"/>
	<path class="st0" d="M1002.3,436.7c-6.9-5.5-7.1-14.3-0.6-20.3c2.7-2.5,7.3-4.6,10.1-4.6c6.7,0,14.5,8.2,14.5,15.1
		c0,6.1-8.6,14.3-14.7,14.3C1009.4,441.1,1005.4,439.2,1002.3,436.7L1002.3,436.7z"/>
	<path class="st0" d="M699.9,367c-3.6-3.1-5.5-6.9-5.5-10.9c0-6.5,8.4-15.7,14.3-15.7c4.4,0,15.5,11.3,15.5,15.7
		c0,4.4-11.1,15.7-15.5,15.7C707,371.8,703,369.8,699.9,367L699.9,367z"/>
	<path class="st0" d="M980.7,369.8c-14.5-5.9-10.1-27.9,5.7-27.9c12.4,0,19.1,14.1,11.1,23.3C992.9,370.4,986.8,372.1,980.7,369.8z"
		/>
	<path class="st0" d="M576.3,332c-0.8-1.5-0.6-3.4,0.6-4.6c2.9-2.9,9.4-0.4,8.4,3.1C584.1,333.9,578.2,334.9,576.3,332z"/>
	<path class="st0" d="M1110.5,330.5c0.4-2.1,2.1-3.8,3.8-3.8c1.7,0,3.4,1.7,3.8,3.8c0.4,2.5-0.6,3.6-3.8,3.6
		C1111.2,334.1,1110.1,333,1110.5,330.5z"/>
	<path class="st0" d="M627.3,319.2c-6.9-4-3.1-14.5,5-14.5c3.1,0,8,5.7,8,9.2c0,1.5-6.5,7.6-8,7.6
		C631.5,321.5,629.2,320.5,627.3,319.2z"/>
	<path class="st0" d="M1053.9,319c-4-4-2.9-11.7,1.7-13.2c9-2.9,14.5,9.2,6.5,13.6C1057,322.1,1057,322.1,1053.9,319z"/>
	<path class="st0" d="M734.7,308.9c-5.9-5.9-5.7-17.6,0.4-21.8c10.3-7.3,23.3-0.8,23.3,11.3C758.4,311.2,743.5,317.7,734.7,308.9
		L734.7,308.9z"/>
	<path class="st0" d="M937.9,309.3c-9.9-8.2-3.4-25.6,9.6-25.6c2.7,0,6.9,1.7,9.6,3.8c9.9,8.2,3.4,25.6-9.6,25.6
		C944.8,313.1,940.6,311.4,937.9,309.3z"/>
	<path class="st0" d="M680.6,305.6c-5-3.6-6.3-13-2.1-17.2c4.4-4.4,13.8-2.9,17.4,2.5c5,7.6-0.4,18-9.2,18
		C686,308.9,683.1,307.5,680.6,305.6z"/>
	<path class="st0" d="M997.3,305.6c-8.6-5.9-4-19.7,6.7-19.7c5.5,0,11.7,6.1,11.7,11.1c0,4.2-7.1,12-11.1,12
		C1003.1,308.9,999.8,307.5,997.3,305.6L997.3,305.6z"/>
	<path class="st0" d="M780.6,282.1c-9.9-8.2-3.4-25.6,9.6-25.6c12.8,0,18.7,15.9,9.4,25.2C794.4,286.9,786.9,287.1,780.6,282.1z"/>
	<path class="st0" d="M889.9,281.7c-2.3-2.3-4.2-6.9-4.2-10.5c0-13.6,16.6-19.7,25-9.2c5.7,7.3,5.5,12.4-0.8,18.7
		C903.7,286.9,895.5,287.3,889.9,281.7z"/>
	<path class="st0" d="M832.4,270.8c-11.3-15.9,9.9-32.9,22.4-18c8.2,9.6,1.3,22.7-12,22.7C837.7,275.4,834.7,273.9,832.4,270.8z"/>
	<path class="st0" d="M1062.1,271.2c-2.9-1.7-1.7-8.4,1.5-8.4c1,0,3.1,1.3,4.4,2.9C1071.1,269.3,1066.3,273.9,1062.1,271.2
		L1062.1,271.2z"/>
	<path class="st0" d="M622.5,269.1c-0.8-1.5-0.6-3.4,0.6-4.6c2.9-2.9,9.4-0.4,8.4,3.1C630.2,271,624.3,272,622.5,269.1z"/>
	<path class="st0" d="M681.6,262.6c-4.6-2.7-4.6-12.2-0.2-13.8c8.2-3.1,15.3,9.6,7.8,13.6C686.6,263.8,683.9,263.8,681.6,262.6z"/>
	<path class="st0" d="M731.9,261.1c-6.9-7.6-1.7-19.3,8.4-19.3c5.2,0,11.1,6.3,11.1,12C751.4,263.4,738.4,268.2,731.9,261.1z"/>
	<path class="st0" d="M944,262.6c-2.5-1.3-3.8-4.6-3.8-9.4c0-5.7,1-7.8,5.2-9.6c6.5-2.9,15.5,0.6,15.9,6.1
		C962.2,262.4,954.1,268.4,944,262.6L944,262.6z"/>
	<path class="st0" d="M995.8,258.6c-2.9-9,9.2-14.1,14.3-5.9c1.7,2.5,1.5,4.4-0.4,6.7C1005.7,264.2,997.5,263.6,995.8,258.6
		L995.8,258.6z"/>
	<path class="st0" d="M801.8,239.7c-2.3-2.3-4.2-5.9-4.2-8c0-5,6.5-10.9,12-10.9c4.8,0,11.1,6.3,11.1,11.1c0,4.4-7.3,12-11.5,12
		C807.5,243.9,804.1,242,801.8,239.7z"/>
	<path class="st0" d="M875.8,240.8c-5.2-3.8-6.5-13.2-2.3-17.4c4.4-4.4,13.8-2.9,17.6,2.9c3.4,5,3.4,5.7-0.6,10.9
		C885.3,244.1,881.9,245,875.8,240.8L875.8,240.8z"/>
	<path class="st0" d="M757.1,224.8c-4.8-2.7-4.6-11.7,0.4-13.4c5.9-1.9,10.7,1,10.7,6.5C768.2,224,762.4,227.5,757.1,224.8
		L757.1,224.8z"/>
	<path class="st0" d="M699.2,217.9c-2.9-3.6-1.5-7.6,2.9-7.6c4.6,0,6.1,4.2,2.7,7.6C702.2,220.6,701.5,220.6,699.2,217.9
		L699.2,217.9z"/>
	<path class="st0" d="M984.5,217.9c-1.7-2.1-1.5-3.6,0.6-5.5c3.6-2.7,7.6-1.3,7.6,3.1C992.7,219.6,987,221,984.5,217.9z"/>
	<path class="st0" d="M838.7,210.1c-3.6-5.2-2.5-9.6,3.1-11.3c8.8-2.9,14.3,9.2,6.3,13.6C842.7,215.4,842.3,215.2,838.7,210.1z"/>
	<path class="st0" d="M890.3,187.9c0.4-2.1,2.1-3.8,3.8-3.8s3.4,1.7,3.8,3.8c0.4,2.5-0.6,3.6-3.8,3.6
		C890.9,191.5,889.9,190.4,890.3,187.9z"/>
	<path class="st0" d="M792.8,183.7c-2.9-2.7-1.3-6.9,2.7-6.9c2.7,0,4.2,1.5,4.2,4.2C799.7,185,795.5,186.6,792.8,183.7z"/>
</g>
<text transform="matrix(1 0 0 1 34.1288 983.9803)" class="st1 st2 st3">追锋汽车</text>
</svg>
