<?xml version="1.0" encoding="utf-8"?>
<!-- Generator: Adobe Illustrator 27.0.0, SVG Export Plug-In . SVG Version: 6.00 Build 0)  -->
<svg version="1.1" id="图层_1" xmlns="http://www.w3.org/2000/svg" xmlns:xlink="http://www.w3.org/1999/xlink" x="0px" y="0px"
	 viewBox="0 0 1252 1252" style="enable-background:new 0 0 1252 1252;" xml:space="preserve">
<style type="text/css">
	.st0{fill:#FF2A5A;}
	.st1{font-family:'STXihei';}
	.st2{font-size:285.1987px;}
	.st3{fill:#0070B9;}
</style>
<text transform="matrix(1 0 0 1 63.7314 944.0527)" class="st0 st1 st2">追锋汽车</text>
<g>
	<path class="st3" d="M110,466.4v-9.5l49.8-44.9l50-44.9l-49.1-0.5l-49-0.4l4.8-9.7l4.8-9.7h59h59v10.3v10.2l-48.6,43.4
		c-26.8,24-48.8,43.9-48.8,44.9c-0.2,0.7,21.8,1.2,48.6,1.2h48.8l-4.8,9.7l-4.8,9.7H170h-59.9L110,466.4L110,466.4z"/>
	<path class="st3" d="M295.7,473c0.7-1.6,14.1-30.5,29.8-64.2l28.7-61.4L366,347l11.7-0.5l-4.7,10.3c-2.5,5.7-15.2,34.7-28.6,64.9
		l-24.1,54.5h-12.9C296,476.1,294.7,475.8,295.7,473L295.7,473z"/>
	<path class="st3" d="M440.1,465.1c-2.9-6.2-14.4-31-25.9-55.4c-11.5-24.2-22.6-48.6-25-53.5l-4.2-9.4h13.1h12.9l25,56.4
		c13.7,30.9,26.6,59.9,28.6,64.7l3.5,8.4h-11.6h-11.5L440.1,465.1z"/>
	<path class="st3" d="M525,411.3v-64.7h63.8h63.8l-4.8,9.7l-4.8,9.7h-49.2h-49.2v17.8v17.8h40.8h40.8l-4.8,9.7l-4.8,9.7h-36h-35.8
		v27.5v27.5h-9.7H525L525,411.3L525,411.3z"/>
	<path class="st3" d="M734.2,411.3v-64.7h64.7h64.7l-4.8,9.7L854,366l-49.8,0.4l-49.6,0.5v16.8v16.8l41.2,0.5l41.4,0.4l-4.8,9.7
		l-4.8,9.7l-36.3,0.4l-36.5,0.5v16.8v16.8l54.5,0.9l54.5,0.9l-4.8,8.8l-4.8,8.8l-59.9,0.5l-59.8,0.4L734.2,411.3L734.2,411.3z"/>
	<path class="st3" d="M982.5,411.3v-64.7h9.5h9.7l43.9,49l43.9,48.8l0.5-48.8l0.4-49h10.6h10.6v64.7v64.7h-10.3h-10.2l-44.1-49.4
		l-44.3-49.2l-0.5,49.2l-0.4,49.4h-9.7h-9.7L982.5,411.3L982.5,411.3z"/>
</g>
<circle class="st3" cx="935.7" cy="408.8" r="14.2"/>
<circle class="st3" cx="925.4" cy="357.6" r="14.2"/>
<circle class="st3" cx="896.4" cy="314.2" r="14.2"/>
<circle class="st3" cx="852.9" cy="285.1" r="14.2"/>
<circle class="st3" cx="801.6" cy="274.9" r="14.2"/>
<circle class="st3" cx="750.4" cy="285.1" r="14.2"/>
<circle class="st3" cx="706.9" cy="314.2" r="14.2"/>
<circle class="st3" cx="677.8" cy="357.6" r="14.2"/>
<circle class="st3" cx="667.7" cy="408.8" r="14.2"/>
<circle class="st3" cx="677.8" cy="460.2" r="14.2"/>
<circle class="st3" cx="706.9" cy="503.6" r="14.2"/>
<circle class="st3" cx="750.4" cy="532.6" r="14.2"/>
<circle class="st3" cx="801.6" cy="542.9" r="14.2"/>
<circle class="st3" cx="852.9" cy="532.6" r="14.2"/>
<circle class="st3" cx="896.4" cy="503.6" r="14.2"/>
<circle class="st3" cx="924.9" cy="461.8" r="14.2"/>
<circle class="st3" cx="836.1" cy="240.4" r="8.5"/>
<circle class="st3" cx="769.1" cy="239.9" r="8.5"/>
<circle class="st3" cx="707" cy="265.1" r="8.5"/>
<circle class="st3" cx="659.3" cy="312.1" r="8.5"/>
<circle class="st3" cx="632.7" cy="440.8" r="8.5"/>
<circle class="st3" cx="657.9" cy="503" r="8.5"/>
<circle class="st3" cx="704.9" cy="550.7" r="8.5"/>
<circle class="st3" cx="766.6" cy="576.7" r="8.5"/>
<circle class="st3" cx="833.6" cy="577.3" r="8.5"/>
<circle class="st3" cx="895.7" cy="552.1" r="8.5"/>
<circle class="st3" cx="943.4" cy="505.1" r="8.5"/>
<circle class="st3" cx="944.9" cy="314.3" r="8.5"/>
<circle class="st3" cx="897.8" cy="266.5" r="8.5"/>
<circle class="st3" cx="836.1" cy="240.4" r="8.5"/>
<circle class="st3" cx="985.9" cy="333.7" r="5.6"/>
<circle class="st3" cx="943.2" cy="269" r="5.6"/>
<circle class="st3" cx="878.8" cy="225.5" r="5.6"/>
<circle class="st3" cx="802.7" cy="209.9" r="5.6"/>
<circle class="st3" cx="726.5" cy="224.6" r="5.6"/>
<circle class="st3" cx="661.8" cy="267.4" r="5.6"/>
<circle class="st3" cx="618.2" cy="331.7" r="5.6"/>
<circle class="st3" cx="602.6" cy="407.7" r="5.6"/>
<circle class="st3" cx="617.4" cy="484" r="5.6"/>
<circle class="st3" cx="660.1" cy="548.8" r="5.6"/>
<circle class="st3" cx="724.4" cy="592.3" r="5.6"/>
<circle class="st3" cx="800.6" cy="607.8" r="5.6"/>
<circle class="st3" cx="876.7" cy="593.2" r="5.6"/>
<circle class="st3" cx="941.5" cy="550.4" r="5.6"/>
<circle class="st3" cx="985.1" cy="486" r="5.6"/>
<circle class="st3" cx="999.3" cy="281.4" r="2.9"/>
<circle class="st3" cx="935.4" cy="215.5" r="2.9"/>
<circle class="st3" cx="851.2" cy="179.1" r="2.9"/>
<circle class="st3" cx="759.5" cy="177.6" r="2.9"/>
<circle class="st3" cx="674.1" cy="211.3" r="2.9"/>
<circle class="st3" cx="608.2" cy="275.1" r="2.9"/>
<circle class="st3" cx="571.8" cy="359.3" r="2.9"/>
<circle class="st3" cx="604.1" cy="536.3" r="2.9"/>
<circle class="st3" cx="667.8" cy="602.2" r="2.9"/>
<circle class="st3" cx="752.1" cy="638.7" r="2.9"/>
<circle class="st3" cx="843.8" cy="640.2" r="2.9"/>
<circle class="st3" cx="929.1" cy="606.5" r="2.9"/>
<circle class="st3" cx="995.1" cy="542.6" r="2.9"/>
<circle class="st3" cx="801.6" cy="408.8" r="8"/>
<text transform="matrix(1 0 0 1 1382.0264 735.2246)" class="st1" style="font-size:12px;">滚滚长江东逝水</text>
</svg>
